<svg id="Layer_1" data-name="Layer 1" xmlns="http://www.w3.org/2000/svg" viewBox="0 0 326.74 67.54"><title>logo</title><path d="M49.54,40.32a13.75,13.75,0,0,1-1.22,5.33,19.29,19.29,0,0,1-3.81,5.62,19.53,19.53,0,0,1-6.65,4.49,24,24,0,0,1-9.42,1.72A33.29,33.29,0,0,1,21,56.71,20.93,20.93,0,0,1,15,54.3,20.38,20.38,0,0,1,10,50a25.69,25.69,0,0,1-3.48-5.43,28.2,28.2,0,0,1-2.16-6.42,34.92,34.92,0,0,1-.72-7.24A32,32,0,0,1,5.4,19.76a23.65,23.65,0,0,1,5.18-8.42A22.57,22.57,0,0,1,18.49,6a25.63,25.63,0,0,1,9.67-1.83A24,24,0,0,1,39.3,6.68a20.08,20.08,0,0,1,7.49,6.17,12.13,12.13,0,0,1,2.6,6.94A4.55,4.55,0,0,1,48.13,23a4,4,0,0,1-3.06,1.37,4.25,4.25,0,0,1-3-.95,13.66,13.66,0,0,1-2.23-3.27A15.64,15.64,0,0,0,35,14.38a11.67,11.67,0,0,0-6.8-1.9A12.34,12.34,0,0,0,18,17.37q-3.81,4.88-3.81,13.88a25.67,25.67,0,0,0,1.69,10,12.54,12.54,0,0,0,4.78,6,13.11,13.11,0,0,0,7.24,2A12.69,12.69,0,0,0,35.49,47a13.46,13.46,0,0,0,4.69-6.56,11.18,11.18,0,0,1,1.66-3.32A3.74,3.74,0,0,1,45,35.79a4.42,4.42,0,0,1,3.2,1.3A4.33,4.33,0,0,1,49.54,40.32Z" transform="translate(-3.59 -4.18)" style="fill:#4aada0"/><path d="M82.51,52.06a29.81,29.81,0,0,1-6.73,4.07,18.88,18.88,0,0,1-7.3,1.35A13.82,13.82,0,0,1,62,56a10.61,10.61,0,0,1-4.31-4,10.2,10.2,0,0,1-1.51-5.41,9.66,9.66,0,0,1,2.5-6.71,12.37,12.37,0,0,1,6.85-3.73c.61-.14,2.12-.46,4.54-1s4.48-.94,6.2-1.35,3.59-.91,5.61-1.5a10,10,0,0,0-1.53-5.57c-.9-1.18-2.77-1.78-5.61-1.78a11.66,11.66,0,0,0-5.5,1,8.94,8.94,0,0,0-3.16,3.06,30.08,30.08,0,0,1-1.87,2.69,3,3,0,0,1-2.33.65,4.11,4.11,0,0,1-2.8-1,3.39,3.39,0,0,1-1.18-2.66,8.08,8.08,0,0,1,1.8-4.92,12.76,12.76,0,0,1,5.59-3.94,25.19,25.19,0,0,1,9.45-1.54,26.68,26.68,0,0,1,10,1.49,9.29,9.29,0,0,1,5.12,4.73,20.75,20.75,0,0,1,1.49,8.58c0,2.25,0,4.16,0,5.73s0,3.31,0,5.23a19.27,19.27,0,0,0,.9,5.65A18,18,0,0,1,93,53.58a3.53,3.53,0,0,1-1.39,2.69,4.67,4.67,0,0,1-3.14,1.21,4.22,4.22,0,0,1-2.92-1.39A20.83,20.83,0,0,1,82.51,52.06Zm-.63-13.88a48.71,48.71,0,0,1-6.14,1.63q-4,.87-5.57,1.27a7.67,7.67,0,0,0-3,1.58A4.06,4.06,0,0,0,65.81,46a4.88,4.88,0,0,0,1.65,3.71,6.14,6.14,0,0,0,4.33,1.53A11.23,11.23,0,0,0,77,49.94a8.33,8.33,0,0,0,3.54-3.22c.86-1.45,1.3-3.84,1.3-7.17Z" transform="translate(-3.59 -4.18)" style="fill:#4aada0"/><path d="M110.57,43.63v8A6.2,6.2,0,0,1,109.2,56a4.6,4.6,0,0,1-3.49,1.46A4.4,4.4,0,0,1,102.3,56,6.3,6.3,0,0,1,101,51.64V24.92q0-6.47,4.67-6.46A3.89,3.89,0,0,1,109.09,20a8.35,8.35,0,0,1,1.16,4.46A17,17,0,0,1,113.78,20a7.3,7.3,0,0,1,4.84-1.51A12.36,12.36,0,0,1,124.49,20c1.9,1,2.85,2.34,2.85,4a3.83,3.83,0,0,1-1.22,2.9A3.77,3.77,0,0,1,123.5,28a12.18,12.18,0,0,1-2.54-.65,11.68,11.68,0,0,0-3.57-.65,5.27,5.27,0,0,0-3.45,1.1,7.12,7.12,0,0,0-2.07,3.29,23.26,23.26,0,0,0-1,5.19Q110.57,39.3,110.57,43.63Z" transform="translate(-3.59 -4.18)" style="fill:#4aada0"/><path d="M157.57,40.32H138.8a12.68,12.68,0,0,0,1.32,5.77,8.84,8.84,0,0,0,8.1,5,11.5,11.5,0,0,0,3.15-.41,10.44,10.44,0,0,0,2.75-1.26,20.64,20.64,0,0,0,2.47-1.85q1.13-1,2.91-2.67a3.18,3.18,0,0,1,2.11-.63,3.46,3.46,0,0,1,2.39.8,2.9,2.9,0,0,1,.92,2.29,6.23,6.23,0,0,1-1,3,12.16,12.16,0,0,1-3.08,3.34,17.29,17.29,0,0,1-5.17,2.65,22,22,0,0,1-7.15,1.06q-9.24,0-14.38-5.27T129,37.9a24,24,0,0,1,1.26-7.9,17.57,17.57,0,0,1,3.7-6.24,16,16,0,0,1,6-4,21.58,21.58,0,0,1,7.88-1.38,18.71,18.71,0,0,1,9.65,2.37,15.69,15.69,0,0,1,6,6.13,16.23,16.23,0,0,1,2,7.67c0,2.41-.69,4-2.07,4.69A12.89,12.89,0,0,1,157.57,40.32ZM138.8,34.87h17.4c-.24-3.28-1.12-5.73-2.66-7.36a7.93,7.93,0,0,0-6.06-2.45,7.7,7.7,0,0,0-5.89,2.48C140.06,29.2,139.12,31.64,138.8,34.87Z" transform="translate(-3.59 -4.18)" style="fill:#4aada0"/><path d="M181.48,23.83V25a19,19,0,0,1,5.62-4.9,13.82,13.82,0,0,1,6.61-1.56,15.37,15.37,0,0,1,8.16,2.28,15.81,15.81,0,0,1,5.89,6.68,23.36,23.36,0,0,1,2.16,10.41A25.5,25.5,0,0,1,208.67,46a18.17,18.17,0,0,1-3.43,6.22,15,15,0,0,1-11.53,5.22,13.42,13.42,0,0,1-6.91-1.65A19.68,19.68,0,0,1,181.48,51V65.39q0,6.33-4.61,6.33c-1.8,0-3-.55-3.58-1.64a10.24,10.24,0,0,1-.88-4.76V23.9a6,6,0,0,1,1.19-4.09,4.15,4.15,0,0,1,3.27-1.35,4.32,4.32,0,0,1,3.32,1.38A5.67,5.67,0,0,1,181.48,23.83Zm18.81,14a16.48,16.48,0,0,0-1.17-6.52,9.49,9.49,0,0,0-3.21-4.18,7.64,7.64,0,0,0-4.55-1.46,8.53,8.53,0,0,0-6.7,3.13q-2.73,3.12-2.73,9.21c0,3.82.91,6.79,2.71,8.91a8.48,8.48,0,0,0,6.72,3.18,7.69,7.69,0,0,0,4.43-1.39,9.55,9.55,0,0,0,3.26-4.16A16.36,16.36,0,0,0,200.29,37.79Z" transform="translate(-3.59 -4.18)" style="fill:#a6a6a6"/><path d="M241.88,52.06a30.08,30.08,0,0,1-6.74,4.07,18.86,18.86,0,0,1-7.29,1.35A13.86,13.86,0,0,1,221.36,56a10.67,10.67,0,0,1-4.31-4,10.3,10.3,0,0,1-1.51-5.41,9.66,9.66,0,0,1,2.5-6.71,12.41,12.41,0,0,1,6.85-3.73c.61-.14,2.13-.46,4.54-1s4.48-.94,6.2-1.35,3.6-.91,5.61-1.5c-.12-2.53-.62-4.39-1.53-5.57s-2.77-1.78-5.6-1.78a11.71,11.71,0,0,0-5.51,1,8.94,8.94,0,0,0-3.16,3.06c-.88,1.36-1.5,2.26-1.86,2.69a3.05,3.05,0,0,1-2.34.65,4.11,4.11,0,0,1-2.8-1,3.41,3.41,0,0,1-1.17-2.66,8.07,8.07,0,0,1,1.79-4.92,12.82,12.82,0,0,1,5.59-3.94,25.21,25.21,0,0,1,9.46-1.54,26.66,26.66,0,0,1,9.94,1.49,9.25,9.25,0,0,1,5.12,4.73,20.59,20.59,0,0,1,1.49,8.58c0,2.25,0,4.16,0,5.73s0,3.31-.06,5.23a19.27,19.27,0,0,0,.9,5.65,17.56,17.56,0,0,1,.9,3.78A3.57,3.57,0,0,1,251,56.27a4.71,4.71,0,0,1-3.15,1.21,4.24,4.24,0,0,1-2.92-1.39A20.45,20.45,0,0,1,241.88,52.06Zm-.64-13.88a48.47,48.47,0,0,1-6.13,1.63c-2.69.58-4.54,1-5.57,1.27a7.64,7.64,0,0,0-3,1.58,4,4,0,0,0-1.4,3.29,4.88,4.88,0,0,0,1.65,3.71,6.1,6.1,0,0,0,4.32,1.53,11.3,11.3,0,0,0,5.26-1.25,8.36,8.36,0,0,0,3.53-3.22q1.31-2.17,1.3-7.17Z" transform="translate(-3.59 -4.18)" style="fill:#a6a6a6"/><path d="M291.3,44.93A11.13,11.13,0,0,1,283.66,56a25.69,25.69,0,0,1-9.2,1.46,22.47,22.47,0,0,1-8.85-1.58,12.91,12.91,0,0,1-5.45-4,7.92,7.92,0,0,1-1.76-4.76,3.68,3.68,0,0,1,1.12-2.71,3.86,3.86,0,0,1,2.85-1.12,3.33,3.33,0,0,1,2.32.73,8.21,8.21,0,0,1,1.55,2.08A10.45,10.45,0,0,0,269.77,50a10.69,10.69,0,0,0,5.61,1.27A8.08,8.08,0,0,0,280.11,50,3.59,3.59,0,0,0,282,47,4,4,0,0,0,280,43.35a23.36,23.36,0,0,0-6.31-2.22,52.26,52.26,0,0,1-8.07-2.58,13.26,13.26,0,0,1-5-3.57,8.19,8.19,0,0,1-1.86-5.45,9.6,9.6,0,0,1,1.72-5.45,11.83,11.83,0,0,1,5.08-4.1,19.63,19.63,0,0,1,8.11-1.52,26.39,26.39,0,0,1,6.69.77,16.72,16.72,0,0,1,5,2.07,10.12,10.12,0,0,1,3,2.89,5.55,5.55,0,0,1,1,3.09A3.59,3.59,0,0,1,288.33,30,4.36,4.36,0,0,1,285.19,31a3.89,3.89,0,0,1-2.52-.84,16.72,16.72,0,0,1-2.37-2.53,8.59,8.59,0,0,0-2.57-2.25,8,8,0,0,0-4-.85,7.85,7.85,0,0,0-4.33,1.11,3.23,3.23,0,0,0-1.72,2.76A3,3,0,0,0,269,30.92a10.52,10.52,0,0,0,3.41,1.6c1.43.42,3.39.94,5.9,1.54a31.63,31.63,0,0,1,7.3,2.61,12.17,12.17,0,0,1,4.29,3.56A8,8,0,0,1,291.3,44.93Z" transform="translate(-3.59 -4.18)" style="fill:#a6a6a6"/><path d="M330.33,44.93A11.15,11.15,0,0,1,322.68,56a25.64,25.64,0,0,1-9.19,1.46,22.49,22.49,0,0,1-8.86-1.58,13,13,0,0,1-5.45-4,8,8,0,0,1-1.76-4.76,3.69,3.69,0,0,1,1.13-2.71,3.85,3.85,0,0,1,2.84-1.12,3.31,3.31,0,0,1,2.32.73,8.21,8.21,0,0,1,1.55,2.08A10.54,10.54,0,0,0,308.79,50a10.74,10.74,0,0,0,5.61,1.27A8.08,8.08,0,0,0,319.13,50,3.6,3.6,0,0,0,321,47a4,4,0,0,0-1.92-3.69,23.36,23.36,0,0,0-6.31-2.22,53,53,0,0,1-8.07-2.58,13.22,13.22,0,0,1-5-3.57,8.14,8.14,0,0,1-1.87-5.45,9.61,9.61,0,0,1,1.73-5.45,11.77,11.77,0,0,1,5.08-4.1,19.58,19.58,0,0,1,8.1-1.52,26.47,26.47,0,0,1,6.7.77,16.65,16.65,0,0,1,4.95,2.07,10.16,10.16,0,0,1,3,2.89,5.61,5.61,0,0,1,1,3.09,3.58,3.58,0,0,1-1.1,2.71A4.41,4.41,0,0,1,324.21,31a3.86,3.86,0,0,1-2.51-.84,16.71,16.71,0,0,1-2.38-2.53,8.56,8.56,0,0,0-2.56-2.25,8,8,0,0,0-4-.85,7.81,7.81,0,0,0-4.32,1.11,3.24,3.24,0,0,0-1.73,2.76A3,3,0,0,0,308,30.92a10.52,10.52,0,0,0,3.41,1.6c1.43.42,3.4.94,5.91,1.54a31.71,31.71,0,0,1,7.29,2.61,12,12,0,0,1,4.29,3.56A8,8,0,0,1,330.33,44.93Z" transform="translate(-3.59 -4.18)" style="fill:#a6a6a6"/></svg>